<svg xmlns="http://www.w3.org/2000/svg" width="28" height="24" viewBox="0 0 28 24">
    <g fill="#002798" fill-rule="evenodd">
        <path d="M17.325.629C9.916-1.95 2.277 3.754 2.045 11.373l-1.697.039c-.27 0-.425.312-.31.547l3.01 4.884c.155.234.502.195.618-.04l2.662-5.079a.345.345 0 0 0-.309-.508l-1.774.079C4.515 5.2 10.572.707 16.553 2.66c1.157.43 2.16-1.524.772-2.031zM10.676 23.371c7.415 2.579 15.061-3.125 15.293-10.744l1.7-.039c.27 0 .424-.312.27-.547l-3.013-4.884c-.116-.234-.463-.195-.579.04l-2.665 5.079a.345.345 0 0 0 .31.508l1.776-.079c-.27 6.095-6.334 10.588-12.32 8.635-1.158-.43-2.162 1.563-.772 2.031z"/>
    </g>
</svg>
